<svg id="Layer_1" data-name="Layer 1" xmlns="http://www.w3.org/2000/svg" viewBox="0 0 116.52 406.3"><defs><style>.cls-1{fill:#1a1a1a;}</style></defs><path class="cls-1" d="M52.59,182.43q-5.31-10.23-5.31-27V59.89q0-14.61-8.63-24.44A32.46,32.46,0,0,0,16.75,24.3c-5.67-.52-9.3-1.68-10.89-3.45a10.37,10.37,0,0,1-3.45-8,10.35,10.35,0,0,1,3.45-8q3.45-3.19,9.82-3.2,22.31,0,38.24,16.6T69.85,59.89v95.59q0,14.6,8.63,24.56t22.44,11q7.44.8,10.36,3.72a10.73,10.73,0,0,1,2.91,8c0,3.55-1,6.29-2.91,8.24s-5.4,3.18-10.36,3.71a31.89,31.89,0,0,0-22.3,11q-8.78,10-8.77,24.57v95.59q0,26.28-18.85,44.61-14.07,13.26-35,13.28c-4.43,0-7.79-1-10.09-3.06a10.29,10.29,0,0,1-3.45-8.09,10.41,10.41,0,0,1,3.45-8q2.66-2.38,10.89-3.18a33,33,0,0,0,21.77-11q8.76-9.71,8.76-24.82V250.28q0-16.47,6.11-28.41,4.77-9,18-19.13Q57.91,192.66,52.59,182.43Z"/></svg>