<svg id="Layer_1" data-name="Layer 1" xmlns="http://www.w3.org/2000/svg" viewBox="0 0 116.52 406.3"><defs><style>.cls-1{fill:#1a1a1a;}</style></defs><path class="cls-1" d="M45.16,202.74q13.28,10.11,18.05,19.13,6.1,11.94,6.11,28.41v95.33q0,15.12,8.76,24.82a33,33,0,0,0,21.78,11q8.22.8,10.89,3.18a10.44,10.44,0,0,1,3.44,8,10.32,10.32,0,0,1-3.44,8.09c-2.31,2-5.67,3.06-10.1,3.06q-21,0-35.05-13.28-18.85-18.33-18.85-44.61V250.28q0-14.61-8.76-24.57a31.93,31.93,0,0,0-22.31-11Q8.24,213.9,5.32,211c-1.95-1.95-2.91-4.69-2.91-8.24a10.73,10.73,0,0,1,2.91-8q2.92-2.92,10.36-3.72,13.8-1.06,22.44-11t8.63-24.56V59.89q0-25,15.93-41.56t38.24-16.6q6.38,0,9.83,3.2a10.38,10.38,0,0,1,3.44,8,10.39,10.39,0,0,1-3.44,8c-1.6,1.77-5.23,2.93-10.89,3.45A32.46,32.46,0,0,0,78,35.45q-8.64,9.84-8.63,24.44v95.59q0,16.72-5.31,27T45.16,202.74Z"/></svg>