<svg id="Layer_1" data-name="Layer 1" xmlns="http://www.w3.org/2000/svg" xmlns:xlink="http://www.w3.org/1999/xlink" viewBox="0 0 321.91 408.49"><defs><style>.cls-1{fill:none;}.cls-2{clip-path:url(#clip-path);}.cls-3{fill:#fff;}</style><clipPath id="clip-path"><rect class="cls-1" x="-10.77" y="-23.95" width="332.68" height="432.43"/></clipPath></defs><g class="cls-2"><polygon class="cls-3" points="126.12 62.47 126.11 62.47 126.11 62.47 126.12 62.47"/><path class="cls-3" d="M329.91,413.76,8,412.72v-64.8c1.95-3.67,2.87-7.74,4.53-11.52.39-.89.2-2.18,1.48-2.56l.36-1a.31.31,0,0,1,.31-.4l.36-1.13.08-.18,1-2.28a2,2,0,0,1,0-.42s.13-.05.21-.07l2.61-5.88c-.17-.34,0-.53.29-.66l0-.08a5,5,0,0,1,1.43-3.38l.06-.11a1.52,1.52,0,0,1,.57-1.42,66.54,66.54,0,0,1,14.81-22,.78.78,0,0,1,.67-.7l0,0a.72.72,0,0,1,.68-.67l0,0a.76.76,0,0,1,.7-.66l0,0a.92.92,0,0,1,.66-.77.84.84,0,0,1,.31-.56c1.41-4.28,5.05-6.07,8.75-7.7,2.09-.92,4.3-1.59,6.46-2.37C63.72,277.1,73,273,82.58,269.37a18.58,18.58,0,0,0,5.18-2.87c1-.1,1.67-1.21,2.8-.95l1.15-.52.13-.11a4.14,4.14,0,0,0,2-3.22c.64-1.74,2.28-2.11,3.71-2.85a45,45,0,0,0,8.59-5.6.42.42,0,0,1,.42-.2c.68-.72,2-.68,2.28-1.93,1.16-4.39,4.52-7.16,7.61-10.12.75-.72,1.55-1.38,2.33-2.06,0-.27,0-.54,0-.82-1.9-1.4-2.45-3.5-2.91-5.65H116a3.63,3.63,0,0,1-1.86-2.53c-3.51-3.38-5.43-7.63-6.63-12.26-1.79.27-1.36-.84-1.12-1.82a3.85,3.85,0,0,1-2.13-2.22c-.06-.71-.12-1.42-.19-2.13a1.13,1.13,0,0,1-.68-1.32c.39-1.35-2-2.12-.74-3.65a2.72,2.72,0,0,1,0-.57,5,5,0,0,1-1.57-2.91c-2.3-7.62-3.32-15.51-4.85-23.29-1.34-3.23-.41-6.61-.66-9.91a29.25,29.25,0,0,1-11.39-14.75l-.44-.14,0,0c-1.51-.36-1.59-1.53-1.59-2.75,0-.34.07-.68.11-1a.27.27,0,0,0,0-.38c-.5-.21-.62-.44-.07-.73,0-.48,0-1,0-1.45l-.33-.05c-1.29-.35-1.07-1.28-.85-2.21l.06-.11a3.69,3.69,0,0,0-2.76-3.19c-.76-.26-1.58-.39-1.85-1.33-.45-1.05-1.05-2.1.07-3.11l7.76-2.81c1.73-2.37,4.55-2.49,7-3.4h1.12l0,0c.32-1.39-.8-2.62-.46-4-2.25-4-2.65-8.5-4-12.73-1.6-4.9-2-10.08-3.22-15a15.19,15.19,0,0,1,0-6.08,64.48,64.48,0,0,1,7.45-22.43c.12-.22.61-.23.93-.33l-.66-1.48c.43-.65.86-1.29,1.79-1.23,0-2.64,2.81-3.94,3.1-6.45a20.11,20.11,0,0,0,3.32-3c0-.88.45-1.23,1.24-1.31,2.64-3.31,6.14-5.74,9-8.79,2.64-2.79,6.28-4.28,8.85-7.2,1.43-1.63,3.86-2.45,5.69-3.09,3.48-1.23,6.35-3.63,10.19-4.34,4.13-.76,8.06-2.9,11.89-4.82a15.92,15.92,0,0,1,5.14-2c2-.25,3.22-1.71,4.41-3.16.74,1.54,1.83,1,2.91.48-.18-.32-.34-.59-.47-.84a5.66,5.66,0,0,1-.33-.64,5.66,5.66,0,0,0,.33.64c.13.25.29.52.47.84a1.88,1.88,0,0,0,2-.47c.93-1.43,2-2.46,3.65-.95,1.94.19,3.52-.71,5.08-1.67-.16-.44.12-.65.44-.83.57-.78,1.39-.64,2.18-.6.11-1,.26-1.87,1.41-.66a2.44,2.44,0,0,0,2.19-2l3.4-1.51,1.46-1a1.56,1.56,0,0,1,2.16-.88l.71-.44c.94-1.52,2.59-1.59,4.08-2l2.89-.35a.46.46,0,0,1,.7-.13,11,11,0,0,1,4.32,0,1.86,1.86,0,0,1,1.32-1.42l1.2.13c.06.33.12.66.19,1l1.18.11a1.17,1.17,0,0,1,1,.7c3.34.08,6.47,1.63,9.86,1.37,1.61-1.2,1.22.21,1.3,1a1.17,1.17,0,0,0,.07.49,7.57,7.57,0,0,1,4.51,2.43l.06,0c1.91,1.07,3.78,2.2,4.9,4.2,1,.42,2.56-.15,2.59,1.68l2.82,2.12c1.11.43,3.27-.38,2.56,2.18,3.26,2.28,5.77,5.3,8.45,8.18a44,44,0,0,1,6.59,10.23c1.36,1.53,1.49,3.61,2.35,5.36l-.18.07.18-.05c2.42,1.76,2.15,4.63,2.92,7.08l.33,1.59c2.32,7.83,4.69,15.65,6,23.74A55.11,55.11,0,0,0,258.1,90a2.46,2.46,0,0,1-.42,2.29c0,.47,0,1,0,1.42,1.71,3.1,1.43,6.6,1.06,9.75-.67,5.77,1,11.06,2.24,16.44.94,4.23,1.11,8.54,2,12.77a6.06,6.06,0,0,1-.34,2l.09,1.36a16.74,16.74,0,0,1-.3,9.28,5.23,5.23,0,0,1,0,4,9.92,9.92,0,0,1-1.07,4.4l-.35,1.36a2.83,2.83,0,0,1,0,.58c0,.07-.16.13-.25.19l-.48.79c-1.65,3.32-2.22,7.21-5.13,9.88-.09.51-.29.94-.87,1,0,1.19-1,1.86-1.41,2.86a5.83,5.83,0,0,0,1.3,3.8c1.66.15,2.85,1.15.9,1.13,2.12,2.86,1.17,3.48-.11,3.54s-2.86-1.44-2.5-2.69a9.8,9.8,0,0,1,.24-1.42c-1.45-.14-2.17.23-3,.12l-.34.56c.07,1.09.16,2.19-1.42,2.23-3.21.72-7.62,4.17-8.93,7.06-.63,1.39-1.15,2.83-1.71,4.24a13.41,13.41,0,0,1-.57,4.36c0,1,.84,1.27,1.5,1.75,1.28.93.91.73-.05,2.09a3.36,3.36,0,0,0,.11,4.25c1.48,1.45,1.23,3.15,1.23,4.87a2.48,2.48,0,0,1-.25,1.35c-1.24,1.78-1.61,3.45-.22,5.42.88,1.25-.41,1.79-1.34,2.27l2.7,2.17.62.68.9.39a12.77,12.77,0,0,1,8.3,5.45,1.91,1.91,0,0,1,1,1.67c1.56,6.3,5,12.07,4.58,19-.19,2.78,2.2,4.69,4.77,5.85,3.19,1.43,6.62,2.4,9.37,4.73,2.29.9,3.57,3,5.46,4.44,1.84,2.39,4.95,3.44,6.51,6.14l1.36-.09.79.78L286,267c1.55-1.08,2.08-.86,2.94,1.22a2.13,2.13,0,0,0,1.81.72c4.08-.41,7.22,1.82,10.46,3.78.42.26.31.8.27,1.25,1.3-.26,2.3-.11,2.17,1.6l1.94,1.85c.58,0,1.29-.11,1.64.35,1.95,2.61,4.72,2.4,7.51,2.41,3.07,0,3.43.68,2.44,3.86a.43.43,0,0,0,.39.31c.47-.4,1-.67,1.57-.26a18.82,18.82,0,0,1,4.11,4.2c.28.42-.11.86-.55,1.1,2.47,2.38,3.42,6,6.32,8h0c.11,4.61.26,9.23-.05,13.84.29,5.17.17,10.34.06,15.52V360c0,.4,0,.8,0,1.2,0,3.37,0,6.74,0,10.11v35.19c0,2.7,0,5.4.12,8.1ZM159,22.78a2.18,2.18,0,0,1,.27-.44A2.18,2.18,0,0,0,159,22.78Zm116,234a2.68,2.68,0,0,0,.43.89A2.68,2.68,0,0,1,275,256.76Z"/><path class="cls-3" d="M254.38,315.51v0h0Z"/><g id="jzjX9y.tif"><path d="M321.91,409.19H3.88c-3.17,0-3.17,0-3.17-3.17V342.09a12.07,12.07,0,0,0,.78-1.57c3-9,6.66-17.86,10.35-26.65,4-9.51,9-18.39,16.2-25.87a35.38,35.38,0,0,0,4.66-5.72,13.19,13.19,0,0,1,6.16-5.11c4.12-1.71,8.3-3.3,12.36-5.15,10.69-4.88,21.84-8.68,32.28-14.12,1.08-.56,2.6-.81,2.72-2.44.15-2.14,1.67-3,3.36-3.65,4.23-1.59,7.27-5.05,11.23-7.07a1.53,1.53,0,0,0,.58-.86c1.52-4.87,5.26-8,8.88-11.16.64-.55,1.42-1,.7-2-2.43-3.29-3-7.61-6-10.62a3.5,3.5,0,0,1-.43-4.56c0,.78.41,1.05,1.13.75.16-.07.38-.42.34-.48-.44-.63-1,0-1.56-.17.12-1.36.89-1.81,2.15-1.46s2.56.69,2.64,2.27c.09,1.78,0,3.57,0,5.35,0,.3-.38.66,0,.87s.59-.16.81-.42c.65-.75.92-2,2.29-1.81a4.27,4.27,0,0,0-.13,1c.06.48,0,1.27.83,1,.48-.16.41-.74.24-1.17s-.61-.6-1-.73c1.4-1.21,3.52-1.33,4.57-3.09.27-.46.52-1.37,1.13-1.13.87.35,0,1.24.21,1.89a2.31,2.31,0,0,1-1.08,2.42,2.35,2.35,0,0,0-1.11,2.07c.09,1.16-.13,2.82,1,3.11,1.53.38,1.5-1.31,1.75-2.4.07-.3-.08-.81.33-.83s.52.46.45.81c-.32,1.47.54,2.46,1.35,3.47.42.52.86,1.35,1.67.81a1.61,1.61,0,0,0,.59-2.42c-.39-.58-.88-1.09-1.27-1.67s.11-1.22.29-1c1.3,1.65,2.26.17,3.26-.27,1.6-.7,2.06,1.29,3.61,1.28,2.34,0,2.61.74,3.52,2.52.21.41-.78,1.73.73,1.3.88-.26,1.59-1.08.85-1.83-1-1-.9-1.62,0-2.56s.69-2.19.81-3.35l-.08.11c1.8-2.49-.18-4.86-.54-7.17-.15-1-2.93-.87-4.52-.88-2,0-4.09.43-4.67-2.41-.07-.36-1-.57-1.49-.82-1-.46-1.94-.84-2.85-1.36-.55-.31-1.15-.42-.15-1.38a10.38,10.38,0,0,1,6.41-3.06c3.35-.34,5.41-2.41,7.15-5,.65-1,.18-1.54-.7-1.9a5.45,5.45,0,0,0-3.45-.32,9.75,9.75,0,0,1-4.2.08c-3.56-.64-7-2.06-10.71-1.87-1.11.06-1.88-.8-2.72-1.46-2.21-1.74-3.76-1.47-5.22.81-.26.41.19,1.45-.76,1.18a1.16,1.16,0,0,1-.67-1.74c1-1.3.17-2-.25-3.22-1-3-1.57-1.95-2.63-.23-.31.5-.66,1-1.29.18-2.32-2.85-2.66-9.29-.58-12.35.41-.61,1.12-1.15,1.76-.89,1,.4.26,1.2,0,1.76-.45,1.08-.72,2,.78,2.48,3.21,1.1,6.16-1.8,9.36-.57.07,0,.25-.1.28-.19.82-2.51,2.78-3.94,4.77-5.49.92-.73,1.33-1.89,2.79-1.21a.87.87,0,0,0,1.21-.39c.79-1.78,2.44-2.85,3.51-4.36,1.93-2.7,1.17-4.68-2.23-5.93-.94-.34-.63-.69-.44-1.23a18,18,0,0,0,1.21-3.66c.69-6.12,1.16-12.28,3-18.2.64-2.07.08-3.12-1.85-3.74s-3.35-.13-4.26,1.93a18.58,18.58,0,0,0-.84,3.05c-1.25,5.13-1.45,10.58-4.12,15.27-1.93,3.38-4.6,6.13-8.62,7.12l.08.09c.44-1.58,1.72-2.49,2.78-3.58,4.73-4.83,5.86-10.81,5.32-17.26-.1-1.19-.27-3-2-2.62a2,2,0,0,0-1.26,3.11c1,2-.36,2.72-1.74,3-2.52.49-5.12.6-7.55,1.57a1.07,1.07,0,0,1-1-.23c-.35-.54.25-.72.55-1,2-2.11,1.94-2.18-.68-2.92-.45-.13-.89-.29-1.33-.44-2.43-.83-3-.59-4.12,1.61-.18.38.08,1.07-.57,1.07s-.75-.55-.85-1c-.39-1.67-.48-3.45-2.65-4.05-.45-.12-.75-1.14-.94-1.8-1.24-4.24-.21-6.94,3.54-9.47.46-.31,1.21-.5,1-1.23s-1-.54-1.53-.59a30.82,30.82,0,0,0-7.36.61,8.38,8.38,0,0,0-3.24,1.07c1,.64,2,.05,3.07.06a1.5,1.5,0,0,1,1.56,1.16c.25,1-.61,1.14-1.25,1.34-2.25.7-4.48,1.46-6.77,2a2.56,2.56,0,0,0-2.17,2.33,21.56,21.56,0,0,0,1.19,13.47c3,6.72,7.7,11.75,14.59,14.59.43.17,1.13.46,1,.84s-.82.08-1.26,0c-6.31-1-10.47-5-13.83-10.06a44.24,44.24,0,0,1-5.19-12.31c-.78-2.66-1.26-5.57-4.75-6.4-1.3-.31-1.31-1.83-1.3-3s1-1.24,2-1.55c7.19-2.51,14.25-5.58,22.12-5.22.29,0,.79-.16.85-.34.11-.41-.31-.56-.65-.63-1.59-.35-3.2-.51-4.52-1.7-.48-.44-1.89,0-1.61.52,1.25,2.25-.78,1.79-1.63,2.11s-1.1,0-.36-.7c.89-.87.17-1.81,0-2.65-.66-2.59-1.36-5.17-2.19-7.71a113,113,0,0,1-4.23-16.59c-.86-5.16-1.51-10.27-.07-15.49.53-1.92,1.22-3.78,1.72-5.69a67.47,67.47,0,0,1,7.65-17.43,47.84,47.84,0,0,1,9-10.74c6.38-5.78,12.45-12,20.27-16,3-1.53,5.94-3.38,9.12-4.43,5.43-1.78,10.81-3.52,15.86-6.32,2.48-1.38,5.66-1.42,7.8-3.66,3.07,1,5.78-.74,8.55-1.4,4.14-1,8.25-2.21,11.66-5.22a27.46,27.46,0,0,1,27.6-5.88c2.65.88,5.5.27,8.12,1.93a105.79,105.79,0,0,1,9.43,6.7c3,2.39,6.23,4.34,9.06,7.07,4.49,4.33,8.8,8.63,12,14.06a77.17,77.17,0,0,1,9.21,23.33c1.34,6.52,3.32,12.87,4.57,19.42a63.4,63.4,0,0,1,1.44,13.54,86.71,86.71,0,0,0,2.4,21.53,74.34,74.34,0,0,1,1.92,14.28c.08,3.63-.07,7.25-.06,10.87,0,4-1.22,7.59-2.51,11.23-2,5.58-5.18,10.53-8.55,15.27-1.56,2.19-3.12,4.6-5.77,6.21-2.26,1.38-5.21,2.36-6.42,5.23a62.24,62.24,0,0,0-2.37,6.63c-.77,2.65,0,5.48-.71,7.94-1.21,4.38-.73,8.83-1.4,13.19a2.37,2.37,0,0,0,.95,2.43,22.75,22.75,0,0,0,5.85,3.86c6.33,2.57,10.7,6.73,11.37,14a8.35,8.35,0,0,0,1,3,15.28,15.28,0,0,1,1.63,7.85c-.15,4,1.45,6.49,5.33,8a38.67,38.67,0,0,1,14.42,9.23,32.09,32.09,0,0,0,11.68,7.75c3.51,1.34,6.92,2.95,10.35,4.49s6.47,3.37,8.72,6.4a6.44,6.44,0,0,0,4.41,2.65,15.14,15.14,0,0,1,8,4.16,77.51,77.51,0,0,1,7.57,8.8c2.39,3,2.78,6.14,2.77,9.75Q321.86,352.88,321.91,409.19ZM169.54,281.45l.08.09a8.27,8.27,0,0,1,.25-2.07c.5-1.39-.14-2.32-1.35-2.18-2.7.29-2.42-3.23-4.66-3.36.06-1.68-1.22-1.57-2.19-1.41a11,11,0,0,1-8.12-1.93c-2.85-1.79-3.22-3.84-3-6.37a34,34,0,0,0-.23-9.28c-.64-3.67-2.73-5.19-5.52-6.5-1.47-.69-3.17-1-4.54-1.8-4.78-2.89-10.21-4.13-15.29-6.24-1.28-.54-2.34-.3-2.16,1.51.15,1.53.15,3.07.38,4.57.89,5.78,1.71,11.58,2.81,17.31a21,21,0,0,0,4.67,10.08,25.43,25.43,0,0,1,5,7.89,103.09,103.09,0,0,1,4.85,17.66A32.56,32.56,0,0,0,146.16,313c1,1.38,1.35,2.7,0,4.08s-.73,2.6.32,4a14.58,14.58,0,0,1,3.41,9c0,2.47,2.19,4.76.76,7.42,1.26,1.31,2.77,2.55.13,4.07-.38.22.3.71.67,1s1.1.76.88,1.38-1.09.77-1.8.82a39.93,39.93,0,0,1-10.86-.81c-1.78-.37-3,.33-3.43,1.54s-.13,3.13,1.47,3.54c3.39.88,3.83,2.93,3,5.86a5.32,5.32,0,0,0,.15,2.08c.6,4.62-.05,9.28.44,13.91,0,.42-.56,1-.14,1.24s.65-.49.89-.84c2.49-3.71,4.85-7.54,8-10.73,5.59-5.72,10.6-12,16.08-17.76,4.46-4.73,8-10.14,12.11-15.14,5.88-7.16,12.9-13.37,17.72-21.41,2.29-3.8,5.76-6.85,7.17-11.22.79-2.46,0-3.4-2.62-3.22-2.34.17-4.19,1.34-6.08,2.57-3.26,2.12-5.57,5.34-8.94,7.36-3,1.77-3.05,1.81-4.12-1.54-.77-2.45-.47-5.12-.39-7.42.09-2.63-.53-6.13,2.4-8.44.67-.53,2.34-2.69,0-4.07-.73-.42-.42-1.24-.3-1.94s-.13-1.5-.66-1.46c-2.22.19-2-1.38-2.12-2.69-.06-.51.44-1.33-.42-1.42a1.23,1.23,0,0,0-1.29,1.37c.68,2.91-1.69,3.46-3.34,4.46C173.37,279.66,171.43,280.5,169.54,281.45Zm-84.82-179a89.92,89.92,0,0,0,1.86,13c.45,2.21,1.71,2.85,3.55,1.68a7.84,7.84,0,0,1,5-.92c1.51.07,3.06,0,4.53.19a37.09,37.09,0,0,1,13.07,3.75c1.2.61,1.85,1.81,3.4,1a1,1,0,0,1,1,.25c.43.47,0,.8-.37,1.07s-1,.34-.63,1c.1.17.64.08,1,.09.9,0,1.44-.73,2.2-1a1.26,1.26,0,0,1,1,0c.46.29.3.77.17,1.24-1.48,5.47-1.34,5.63,4.25,5,.71-.07,1.4-.19,2.11-.26,1.81-.16,2.45-1.13,2.09-2.88-.17-.78-.75-2.09,0-2.28,2.39-.62,2.58-2.75,3.59-4.35a2.31,2.31,0,0,1,2.4-1.16,5.62,5.62,0,0,0,5.5-2.12c1.91-2.12,4.94-2.6,7.42-3.91a4.83,4.83,0,0,0,2.93-4.37c0-3.36-1.26-6.76.6-10a2.35,2.35,0,0,0,.22-1c.12-2-1.5-3.1-2.42-4.55-.75-1.18-1.58-.29-2.37.2a1.06,1.06,0,0,1-1.53-.37,1.62,1.62,0,0,1-.05-2c.74-.9,1.68-1.64,2.43-2.53s1.4-2,.3-3.42c-2-2.54-1.95-3.36-.26-6,.67-1.06,1.79-2.56.24-3.35-2.08-1-1.29-2.2-.91-3.64a16.52,16.52,0,0,1,.83-3,1.09,1.09,0,0,0-.18-1c-.47-.48-.72.08-1.12.29-2.25,1.2-3.16.56-4.8-1.37-1.88-2.19-1-4.83-1.81-7.2-.77-2.19-1.68-3.32-3.7-4.06-1.8-.66-3.26-2.42-5.53-1.4a5.9,5.9,0,0,1-3.77.26,12.11,12.11,0,0,0-5.88.57c-4.38,1.24-8.29,3.6-12.74,4.8a21.21,21.21,0,0,0-9,4.55A29.08,29.08,0,0,0,92,74c-2.26,5.57-3.52,11.46-5.36,17.16A51.62,51.62,0,0,0,84.72,102.46Zm37,89.86c1.26,0,2.41.26,2.58-.74.34-2,1.72-2,3.15-2,2.12-.08,3.69-1.44,5.47-2.32.43-.21.83-.51.8-1,0-.68-.64-.95-1.15-1.23a1.58,1.58,0,0,0-1.91.32c-2.07,1.62-4.4,1.5-6.7.71a6.86,6.86,0,0,0-3.31,0,27,27,0,0,1-7.93-.28c-1.86-.34-4-.17-4.4,1.21s.53,2.42,2.62,3.38C114.59,192,118.85,189.57,121.76,192.32Zm-2.43,182.74c0-2.71-2.5-5.32-5-5.38a6,6,0,0,0-5.51,5.38,5.28,5.28,0,0,0,10.55,0Zm-7.51-67.4a11.72,11.72,0,0,0-1.17-5,2.33,2.33,0,0,0-4.42.53,10.45,10.45,0,0,0,1.13,6.78,1.76,1.76,0,0,0,2,1c1-.18,1.86-.47,2.15-1.54A16.89,16.89,0,0,0,111.82,307.66Zm-8.47-167.77c.49-.07,1.07-.14,1.64-.25s1.2-.06,1.14-.55-.77-.17-1.2-.22c-2.49-.3-3.47-1.32-4.19-4.37-.17-.73.22-1.84-1-1.84A2.19,2.19,0,0,0,97.77,134a3.51,3.51,0,0,0,.06,3.58C99.13,140.09,101.32,139.46,103.35,139.89Zm55.2,20.74a18.5,18.5,0,0,0,17.58-12.11c.19-.54.61-1.38.16-1.6-.75-.36-.73.64-.9,1-3.07,7.27-9.22,10.22-16.38,11.81-1,.21-2,0-2.91.54Zm-1.2-25.57c.22-.54,1.76.56,1.45-1-.26-1.36-.89-2.58.33-3.87.59-.63-.31-.57-.63-.56a3.61,3.61,0,0,0-3.39,2C154.06,133.65,154.86,135,157.35,135.06ZM102.08,129a.88.88,0,0,0-1.09-.58,20.8,20.8,0,0,0-5.62,1.67c-.51.23-1.24.78-1,1.25.45.9,1.18.13,1.7-.12a16.24,16.24,0,0,1,4.93-1.58C101.41,129.57,101.9,129.52,102.08,129ZM163,157.65c1-.07,1.86-.57,1.81-1.64a1.45,1.45,0,0,0-1.73-1.24,2.12,2.12,0,0,0-1.38,2.13C161.62,157.64,162.4,157.6,163,157.65Zm-6.21-31.4a2.2,2.2,0,0,0-2.49,1.4.65.65,0,0,0,.16.6c1,.65,1.71-.28,2.51-.58.61-.24,1.72-.39,1.62-1S157.35,126.57,156.75,126.25ZM94.38,269.54a.73.73,0,0,0-.41.82c.18.91,1,1.14,1.71,1.43.36.14.35-.39.25-.68C95.65,270.35,95.29,269.66,94.38,269.54Zm83.38-128.08-.25-1.45c-.56.69-.32,1.56-.47,2.34,0,.31-.47,1.11.34.89C178,143.09,177.72,142.23,177.76,141.46ZM84.6,270.38c-.19-.23-.37-.51-.4-.49-.69.34-.84,1.06-1.12,1.68-.15.33-.08.82.37.44A7.49,7.49,0,0,0,84.6,270.38Zm44.13-105.86a.58.58,0,0,0-.32-.83.59.59,0,0,0-.57.11.54.54,0,0,0,.31.81C128.3,164.68,128.54,164.56,128.73,164.52Zm39.39,110.69c-.53.1-.88.32-.81.7s.49.45.83.3a.86.86,0,0,0,.46-.48A.41.41,0,0,0,168.12,275.21Zm-55-49.07a1.22,1.22,0,0,0,.89-1c.07-.45-.24-.62-.63-.43a1.31,1.31,0,0,0-.73,1.11C112.61,226.09,112.83,226.2,113.1,226.14ZM119.58,136c.62-.22.63-.72.72-1.15,0-.18-.09-.56-.17-.57-.6-.08-.74.39-.77.84A3,3,0,0,0,119.58,136Zm-13.21,82.48c-.08-.2-.12-.5-.27-.57-.4-.18-.65,0-.59.46a.69.69,0,0,0,.42.43C106,218.87,106.22,218.63,106.37,218.51Zm52.7-96.59-.49.22a2.77,2.77,0,0,0,.62.14,2.67,2.67,0,0,0,.62-.1C159.68,121.76,159.32,122,159.07,121.92ZM135.82,223.58a.71.71,0,0,0-.54.76c0,.14.27.42.39.41.4,0,.49-.42.47-.75C136.13,223.85,135.92,223.7,135.82,223.58Zm-25-42.17c0-.1.12-.23.09-.29a.34.34,0,0,0-.56-.08c-.07.06-.08.19-.12.29ZM118.52,227c-.12.14-.32.29-.31.42s.22.3.44.15a.47.47,0,0,0,.19-.23C118.9,227.09,118.77,227,118.52,227ZM92.27,268.05c.1.08.34.42.64.49s.39-.3.19-.52a1.91,1.91,0,0,0-.77-.63C92.05,267.31,92,267.59,92.27,268.05Zm58.4-178.4-.42-.41c-.06.09-.19.22-.18.24a4.17,4.17,0,0,0,.41.43ZM148,381.41a1.3,1.3,0,0,0,.82-1.06c.08-.35,0-.74-.52-.51a1.07,1.07,0,0,0-.67,1.12C147.6,381.12,147.82,381.26,148,381.41Z"/><path d="M135,219.7c-1.42,1.81-3.43,1.44-5.34,1.46-.82,0-1.42-.3-1.2-1.23.17-.76.59-1.24,1.51-.8.52.25,1.59.93,1.42-.33-.43-3.27,1-1.59,2.08-.9a3.24,3.24,0,0,1,1.45,1.91Z"/><path d="M100.3,209.86c-2.06-.88-2.28-3-2.85-4.7-.33-1,.93-1.06,1.66-1.29L99,203.8c1.89.62,1.54,3,3,3.94.42.27.15.89-.41,1-.77.11-1.3.42-1.43,1.24Z"/><path d="M109.88,164.86c.11,1.27-1.29,3.57-2.26,3.6a2.83,2.83,0,0,1-2.73-1.83c-.41-1.35,1.21-.85,1.91-1.23s1.42-.76,2.16-1.1C109.48,164.06,109.85,164.22,109.88,164.86Z"/><path d="M99.11,203.87a3.49,3.49,0,0,1-.65-2.28c.05-.66-.37-1.37-1-1-2,1.23-1.42-.19-1.07-1a8.51,8.51,0,0,1,1.44-1.84,9.66,9.66,0,0,0,.89,1.86,3.52,3.52,0,0,1,.3,4.2Z"/><path d="M108.43,210.4c1.15.32,1.13,1.32,1.21,2.21s-.27,1.45-1.15,1.34a1.53,1.53,0,0,1-1.38-1.71A1.81,1.81,0,0,1,108.43,210.4Z"/><path d="M115.24,215.57c.28,0,.48.15.31.35-.73.89-1.52,1.73-2.31,2.57a.35.35,0,0,1-.33,0c-.27-.12-.29-.32-.15-.58A6.93,6.93,0,0,1,115.24,215.57Z"/><path d="M101.27,164.5a3.49,3.49,0,0,1-.79.61,3.25,3.25,0,0,1-2.32.06c.74-.09,1.49-.15,2.22-.28a4.38,4.38,0,0,0,.93-.39Z"/><path d="M106.55,202.06a.58.58,0,0,1-.76.4.53.53,0,0,1-.34-.77.63.63,0,0,1,.54-.25A.55.55,0,0,1,106.55,202.06Z"/><path d="M107.33,162.63a3,3,0,0,1-2.71,1.55l.09.07a4,4,0,0,1,2.7-1.53Z"/><path d="M127.92,213.05l.44.39c-.19.05-.4.17-.56.12s-.28-.26-.42-.39Z"/><path d="M105.42,172.11c0,.31-.12.49-.39.39a1,1,0,0,1-.48-.48c-.1-.27.11-.47.38-.36S105.26,172,105.42,172.11Z"/><path d="M100.69,212.4l1.23-.24c0,.19,0,.47-.09.54-.48.34-.76-.12-1.09-.36Z"/><path d="M100.21,210c1.07.63.86,1.52.48,2.45l0-.06-.44-2.48Z"/><path d="M112.84,171.14c.19.1.48.14.55.29.17.37,0,.62-.43.54-.19,0-.34-.25-.5-.39C112.59,171.44,112.71,171.29,112.84,171.14Z"/><path d="M106.79,170.36c0,.09-.06.22-.13.25s-.17-.07-.25-.11l.12-.26Z"/><path d="M104.62,164.18a4.05,4.05,0,0,1-3.35.32h0l3.4-.25Z"/><path d="M98.91,145.57l.09.25c-.08,0-.19.1-.25.08s-.07-.16-.1-.25Z"/><path d="M120.28,163.37c-.06.08-.12.23-.19.24a.31.31,0,0,1-.41-.35.3.3,0,0,1,.17-.24C120.12,163,120.26,163.11,120.28,163.37Z"/><path d="M169.54,281.45c-.67.34-1.27,1.52-2,.72a3.47,3.47,0,0,1-.77-2.59c.12-.89.63,0,.77.2a4.12,4.12,0,0,0,2.12,1.76Z"/><path d="M182.4,282.32c0,.1.06.24,0,.29s-.36.15-.49-.08c0-.08-.07-.25,0-.29S182.26,282.1,182.4,282.32Z"/><path d="M142,89.62a1.34,1.34,0,0,1-1.44,1.19.62.62,0,0,1-.55-.74c.07-.71.23-1.47,1.15-1.46C141.7,88.62,142,89.09,142,89.62Z"/><path d="M150.05,96.16c-.1.25-.3.37-.48.2s-.06-.36,0-.54.18-.13.27-.12C150.06,95.73,150.14,95.9,150.05,96.16Z"/><path d="M137.69,59.75c-.26,0-.37-.16-.3-.41a.33.33,0,0,1,.25-.15c.25,0,.37.15.3.4C137.92,59.66,137.78,59.7,137.69,59.75Z"/></g></g></svg>