<?xml version="1.0" encoding="utf-8"?>
<!-- Generator: Adobe Illustrator 24.2.3, SVG Export Plug-In . SVG Version: 6.00 Build 0)  -->
<svg version="1.1" id="Layer_1" xmlns="http://www.w3.org/2000/svg" xmlns:xlink="http://www.w3.org/1999/xlink" x="0px" y="0px"
	 viewBox="0 0 321.9 408.5" style="enable-background:new 0 0 321.9 408.5;" xml:space="preserve">
<style type="text/css">
	.st0{fill:#FFFFFF;}
	.st1{clip-path:url(#SVGID_2_);}
	.st2{fill:#1C1917;}
</style>
<path class="st0" d="M85.8,120.8c0.3,0.4,0.7,0.8,0.9,1.2c0.7,1.5,0,3.2-1.2,4.4c-1.1,1.2-2.6,1.9-3.8,3c-2.3,2-3.6,5.1-3.9,8.2
	s0.2,6.2,1.1,9.2c0.8,2.9,1.9,5.8,4.1,7.8c0.8,0.8,1.8,1.4,2.7,1.9c2.5,1.4,5.3,2.4,8.1,2.3c2.2-0.1,4.3-1,6.3-1.8
	c4.7-1.9,9.6-3.9,13.3-7.4c5.8-5.6,7.5-14.2,8.2-22.3c0.3-3.4,0.5-6.9,0.6-10.3c0-0.9,0-1.8-0.3-2.6c-0.9-2.7-4.3-3.6-7.2-3.9
	c-4.5-0.4-9.1-0.6-13.5-2c-2.2-0.8-4.4-1.9-6.7-2.1c-1.6-0.1-3-0.1-4.5-0.7c-1.4-0.6-2.4-1.9-3.7-2.6c-1.9-1.1-2.6-0.3-3.2,1.7
	C81.9,109.8,82.6,116.8,85.8,120.8z"/>
<rect x="126.7" y="76.9" class="st0" width="34.2" height="26.1"/>
<g>
	<defs>
		<rect id="SVGID_1_" x="-10.8" y="-24" width="332.7" height="432.4"/>
	</defs>
	<clipPath id="SVGID_2_">
		<use xlink:href="#SVGID_1_"  style="overflow:visible;"/>
	</clipPath>
	<g class="st1">
		<polygon class="st0" points="126.1,62.5 126.1,62.5 126.1,62.5 		"/>
		<path class="st0" d="M320,311.2c0.3-4.6,0.2-9.2,0-13.8c-0.1-0.1-0.1-0.1-0.2-0.2c-1.9,0.4-4-0.1-5.3-2.2
			c-2.1-3.5,5.3-7.3,3.1-10.7c0,0,0,0-0.1,0c-0.2,0-0.3-0.1-0.4-0.3c0-0.1,0.1-0.2,0.1-0.3c-0.8-1.2-1.7-2.3-2.8-3.4
			c-0.1-0.1-0.1-0.1-0.2-0.2c-2.7,0-5.2,0.1-7.1-2.4c-0.4-0.5-1.1-0.4-1.6-0.4l-1.9-1.8c0.1-1.7-0.9-1.9-2.2-1.6
			c0-0.5,0.2-1-0.3-1.2c-3.2-2-6.4-4.2-10.5-3.8c-0.7,0.1-1.4-0.2-1.8-0.7c-0.9-2.1-1.4-2.3-2.9-1.2l-1.9-0.5l-0.8-0.8l-1.4,0.1
			c-1.6-2.7-4.7-3.8-6.5-6.1c-1.9-1.4-3.2-3.5-5.5-4.4c-2.8-2.3-6.2-3.3-9.4-4.7c-2.6-1.2-5-3.1-4.8-5.8c0.4-6.9-3-12.7-4.6-19
			c0-0.7-0.4-1.3-1-1.7c-1.9-2.9-4.9-4.8-8.3-5.5l-0.9-0.4l-0.6-0.7l-2.7-2.2c0.9-0.5,2.2-1,1.3-2.3c-1.4-2-1-3.6,0.2-5.4
			c0.2-0.4,0.3-0.9,0.2-1.4c0-1.7,0.2-3.4-1.2-4.9c-0.7-0.8-0.9-1.9-0.7-2.9c-0.8-1.3-1-2.9-0.6-4.4c-0.1-0.2-0.2-0.4-0.2-0.7
			c0.4-1.4,0.6-2.9,0.6-4.4c0.6-1.4,1.1-2.9,1.7-4.2c1.2-2.7,5.2-6,8.4-6.9c0.3-0.3,0.6-0.6,0.9-0.8c1.2-2.3,2.7-4.5,4.5-6.5
			c0,0,0-0.1,0-0.1c0.4-1,1.4-1.7,1.4-2.9c0.6-0.1,0.8-0.5,0.9-1c2.9-2.7,3.5-6.6,5.1-9.9l0.5-0.8c0.1-0.1,0.2-0.1,0.2-0.2
			c0-0.2,0-0.4,0-0.6l0.3-1.4c0.7-1.4,1.1-2.9,1.1-4.4c0.5-1.3,0.5-2.7,0-4c1-3,1.1-6.2,0.3-9.3l-0.1-1.4c0.2-0.6,0.3-1.3,0.3-2
			c-0.9-4.2-1.1-8.5-2-12.8c-1.2-5.4-2.9-10.7-2.2-16.4c0.4-3.2,0.7-6.7-1.1-9.8v-1.4c0.5-0.6,0.7-1.5,0.4-2.3
			c-0.5-1.9-0.9-3.9-1.2-5.8c-1.3-8.1-3.7-15.9-6-23.7l-0.3-1.6c-0.8-2.5-0.5-5.3-2.9-7.1l-0.2,0l0.2-0.1c-0.9-1.8-1-3.8-2.4-5.4
			c-1.7-3.7-3.9-7.1-6.6-10.2c-2.7-2.9-5.2-5.9-8.5-8.2c0.7-2.6-1.5-1.8-2.6-2.2l-2.8-2.1c0-1.8-1.6-1.3-2.6-1.7
			c-1.1-2-3-3.1-4.9-4.2h-0.1c-1.2-1.3-2.8-2.2-4.5-2.4c-0.1-0.2-0.1-0.3-0.1-0.5c-0.1-0.8,0.3-2.2-1.3-1c-3.4,0.3-6.5-1.3-9.9-1.4
			c-0.2-0.4-0.6-0.7-1-0.7l-1.2-0.1c-0.1-0.3-0.1-0.7-0.2-1l-1.2-0.1c-0.7,0.2-1.2,0.7-1.3,1.4c-1.4-0.3-2.9-0.3-4.3,0
			c0,0,0,0-0.1-0.1c-0.2-0.1-0.5,0-0.6,0.2l-2.9,0.4c-1.5,0.4-3.1,0.5-4.1,2l-0.7,0.4c-0.1,0-0.1-0.1-0.2-0.1c-0.8-0.3-1.7,0.1-2,1
			l-1.5,1l-3.4,1.5c-0.2,1.1-1.1,1.9-2.2,2c-1.2-1.2-1.3-0.3-1.4,0.7c-0.8,0-1.6-0.2-2.2,0.6c-0.3,0.2-0.6,0.4-0.4,0.8
			c-1.6,1-3.1,1.9-5.1,1.7c-1.7-1.5-2.7-0.5-3.7,1c-0.5,0.5-1.3,0.7-2,0.5c-1.1,0.5-2.2,1.1-2.9-0.5c-1.2,1.5-2.4,2.9-4.4,3.2
			c-1.8,0.4-3.6,1-5.1,2c-3.8,1.9-7.8,4.1-11.9,4.8c-3.8,0.7-6.7,3.1-10.2,4.3c-1.8,0.6-4.3,1.5-5.7,3.1c-2.6,2.9-6.2,4.4-8.8,7.2
			c-2.9,3-6.4,5.5-9,8.8c-0.8,0.1-1.2,0.4-1.2,1.3c-1,1.1-2.1,2.1-3.3,3c-0.3,2.5-3.1,3.8-3.1,6.5c-0.9-0.1-1.4,0.6-1.8,1.2l0.7,1.5
			c-0.3,0.1-0.8,0.1-0.9,0.3c-3.8,7-6.4,14.6-7.5,22.4c-0.4,2-0.4,4.1,0,6.1c1.2,4.9,1.6,10.1,3.2,15c1.3,4.2,1.8,8.7,4,12.7
			c-0.3,1.4,0.8,2.6,0.5,4h-1.1c-2.4,0.9-5.3,1-7,3.4l-7.8,2.8c-1.1,1-0.5,2.1-0.1,3.1c0.3,0.9,1.1,1.1,1.8,1.3
			c1.5,0.4,2.6,1.7,2.8,3.2l-0.1,0.1c-0.2,0.9-0.4,1.9,0.8,2.2l0.3,0v1.5c-0.5,0.3-0.4,0.5,0.1,0.7c0.1,0.1,0.1,0.3,0,0.4
			c0,0.3-0.1,0.7-0.1,1c0,1.2,0.1,2.4,1.6,2.8l0.4,0.1c2.1,6,6.1,11.2,11.4,14.8c0.2,3.3-0.7,6.7,0.7,9.9c1.3,6.4,2.2,12.9,3.8,19.3
			c0.8,0.8,1.4,1.9,1.4,3.3c0,0.8,0.1,1.6,0.2,2.3c0.3,0.5,0.6,0.9,1,1.3c0,0.2,0,0.4,0,0.6c-1.3,1.5,1.1,2.3,0.7,3.7
			c-0.1,0.5,0.2,1.1,0.7,1.3c0,0.5,0.1,0.9,0.1,1.4c0.3,0.7,0.6,1.4,0.9,2.1c0.4,0.4,0.8,0.7,1.3,0.9c-0.2,1-0.7,2.1,1.1,1.8
			c1.2,4.6,3.1,8.9,6.6,12.3c0.2,1.1,0.9,2,1.9,2.5h-0.1c0.5,2.1,1,4.2,2.9,5.6v0.8c-0.8,0.7-1.6,1.3-2.3,2.1
			c-3.1,3-6.5,5.7-7.6,10.1c-0.3,1.2-1.6,1.2-2.3,1.9c-0.2,0-0.3,0.1-0.4,0.2c-2.6,2.2-5.5,4.1-8.6,5.6c-1.4,0.7-3.1,1.1-3.7,2.9
			c-0.1,1.3-0.9,2.5-2,3.2l-0.1,0.1l-1.2,0.5c-1.1-0.3-1.8,0.8-2.8,1c-1.6,1.2-3.3,2.2-5.2,2.9c-9.6,3.6-18.9,7.7-28.2,12
			c-2.2,0.8-4.4,1.4-6.5,2.4c-3.7,1.6-7.3,3.4-8.8,7.7c-0.2,0.1-0.3,0.3-0.3,0.6c-0.4,0.1-0.6,0.4-0.7,0.8c-0.4,0-0.7,0.3-0.7,0.7
			c-0.4,0-0.7,0.3-0.7,0.7c-0.4,0-0.6,0.3-0.7,0.7c-6.4,6.3-11.4,13.7-14.8,22c-0.4,0.3-0.6,0.9-0.6,1.4l-0.1,0.1
			c-0.9,0.9-1.4,2.1-1.4,3.4v0.1c-0.3,0.1-0.5,0.3-0.3,0.7l-2.6,5.9c-0.1,0-0.2,0.1-0.2,0.1c0,0.1,0,0.3,0,0.4l-1,2.3l-0.1,0.2
			l-0.4,1.1c0,0-0.1,0-0.1,0c-0.2,0-0.3,0.2-0.2,0.4l-0.4,1c-1.3,0.4-1.1,1.7-1.5,2.6c-1.7,3.8-2.6,7.8-4.5,11.5v59.8l312.1,1
			c-0.1-2.4-0.1,0.2-0.1-2.3v-79.8C320.1,321.6,320.3,316.4,320,311.2z M144,97.5c-2.7,0.1-4.9-2.4-5-5c0,0,0,0,0-0.1c0,0,0,0,0-0.1
			c0,0,0,0,0,0c0,0,0,0,0,0c0,0-0.1-0.1-0.1-0.1c0,0,0,0,0,0c0,0,0,0,0,0c-2.4-1.5-3.1-4.4-1.8-6.8c1.2-2.3,4.6-3.2,6.8-1.8
			c3.1,2,5,5.1,5.1,8.9C149.1,95.3,146.7,97.4,144,97.5z"/>
		<path class="st0" d="M159,22.8c0.1-0.2,0.2-0.3,0.3-0.4C159.2,22.5,159.1,22.6,159,22.8z"/>
		<path class="st0" d="M275,256.8c0.1,0.3,0.2,0.6,0.4,0.9C275.2,257.4,275.1,257.1,275,256.8L275,256.8z"/>
		<path class="st0" d="M254.4,315.5L254.4,315.5L254.4,315.5z"/>
		<g id="jzjX9y.tif">
			<path class="st2" d="M321.4,291.1c-0.8-1.5-1.6-3-2.4-4.5c-2.2-3-4.7-5.8-7.3-8.5c-2.2-2.2-5-3.6-8-4.2c-1.8-0.2-3.4-1.2-4.4-2.7
				c-2.2-3-5.3-4.9-8.7-6.4s-6.8-3.2-10.3-4.5c-4.4-1.7-8.4-4.3-11.7-7.8c-4.1-4.1-9-7.3-14.4-9.2c-3.9-1.5-5.5-4-5.3-8
				c0.2-2.7-0.4-5.4-1.6-7.8c-0.5-0.9-0.9-1.9-1-3c-0.7-7.3-5-11.4-11.4-14c-2.1-1-4.1-2.3-5.9-3.9c-0.8-0.5-1.1-1.5-1-2.4
				c0.7-4.4,0.2-8.8,1.4-13.2c0.7-2.5-0.1-5.3,0.7-7.9c0.7-2.3,1.5-4.5,2.4-6.6c1.2-2.9,4.2-3.9,6.4-5.2c2.7-1.6,4.2-4,5.8-6.2
				c3.4-4.7,6.5-9.7,8.5-15.3c1.3-3.6,2.5-7.2,2.5-11.2c0-3.6,0.1-7.2,0.1-10.9c-0.2-4.8-0.8-9.6-1.9-14.3c-1.7-7-2.5-14.3-2.4-21.5
				c0-4.6-0.5-9.1-1.4-13.5c-1.2-6.5-3.2-12.9-4.6-19.4c-1.8-8.2-4.9-16.1-9.2-23.3c-3.2-5.4-7.5-9.7-12-14.1
				c-2.8-2.7-6.1-4.7-9.1-7.1c-3-2.4-6.2-4.6-9.4-6.7c-2.6-1.7-5.5-1.1-8.1-1.9c-9.6-3.3-20.2-1-27.6,5.9c-3.4,3-7.5,4.2-11.7,5.2
				c-2.8,0.7-5.5,2.4-8.5,1.4c-2.1,2.2-5.3,2.3-7.8,3.7c-5,2.8-10.4,4.5-15.9,6.3c-3.2,1-6.1,2.9-9.1,4.4c-7.8,4-13.9,10.2-20.3,16
				c-3.5,3.1-6.5,6.7-9,10.7c-3.4,5.4-5.9,11.3-7.7,17.4c-0.5,1.9-1.2,3.8-1.7,5.7c-1.4,5.2-0.8,10.3,0.1,15.5
				c1,5.6,2.4,11.2,4.2,16.6c0.8,2.5,1.5,5.1,2.2,7.7c0.2,0.8,0.9,1.8,0,2.7c-0.7,0.7-0.5,1,0.4,0.7s2.9,0.1,1.6-2.1
				c-0.3-0.5,1.1-1,1.6-0.5c1.3,1.2,2.9,1.3,4.5,1.7c0.3,0.1,0.8,0.2,0.6,0.6c-0.1,0.2-0.6,0.3-0.8,0.3c-7.9-0.4-14.9,2.7-22.1,5.2
				c-1,0.3-2,0.4-2,1.6c0,1.2,0,2.7,1.3,3c3.5,0.8,4,3.7,4.8,6.4c1.1,4.3,2.8,8.5,5.2,12.3c3.4,5.1,7.5,9.1,13.8,10.1
				c0.4,0.1,1.1,0.4,1.3,0s-0.6-0.7-1-0.8c-6.9-2.8-11.6-7.9-14.6-14.6c-1.8-4.2-2.2-9-1.2-13.5c0.1-1.2,1-2.2,2.2-2.3
				c2.3-0.5,4.5-1.3,6.8-2c0.6-0.2,1.5-0.3,1.2-1.3c-0.2-0.7-0.8-1.2-1.6-1.2c-1.1,0-2.1,0.6-3.1-0.1c1-0.6,2.1-0.9,3.2-1.1
				c2.4-0.5,4.9-0.7,7.4-0.6c0.5,0,1.3-0.1,1.5,0.6c0.2,0.7-0.5,0.9-1,1.2c-3.8,2.5-4.8,5.2-3.5,9.5c0.2,0.7,0.5,1.7,0.9,1.8
				c2.2,0.6,2.3,2.4,2.6,4.1c0.1,0.4,0.2,1,0.9,1c0.6,0,0.4-0.7,0.6-1.1c1.1-2.2,1.7-2.4,4.1-1.6c0.4,0.2,0.9,0.3,1.3,0.4
				c2.6,0.7,2.7,0.8,0.7,2.9c-0.3,0.3-0.9,0.5-0.6,1c0.3,0.2,0.6,0.3,1,0.2c2.4-1,5-1.1,7.6-1.6c1.4-0.3,2.7-1,1.7-3
				c-0.2-0.2-0.3-0.5-0.3-0.8c-0.2-1.1,0.5-2.1,1.6-2.3c1.7-0.4,1.9,1.4,2,2.6c0.5,6.4-0.6,12.4-5.3,17.3c-1,1.1-2.3,2-2.7,3.5
				c3.9-1,6.6-3.7,8.5-7.1c2.7-4.7,2.9-10.1,4.1-15.3c0.2-1,0.5-2.1,0.8-3c0.9-2.1,2.3-2.6,4.3-1.9c1.9,0.6,2.5,1.7,1.8,3.7
				c-1.8,5.9-2.3,12.1-3,18.2c-0.3,1.3-0.7,2.5-1.2,3.7c-0.2,0.5-0.5,0.9,0.4,1.2c3.4,1.2,4.2,3.2,2.2,5.9c-1.1,1.5-2.7,2.6-3.5,4.4
				c0,0,0,0,0,0.1c-0.2,0.4-0.8,0.6-1.2,0.3c-1.5-0.7-1.9,0.5-2.8,1.2c-2,1.5-3.9,3-4.8,5.5c0,0.1-0.2,0.2-0.3,0.2
				c-3.2-1.2-6.1,1.7-9.4,0.6c-1.5-0.5-1.2-1.4-0.8-2.5c0.3-0.6,1-1.4,0-1.8c-0.6-0.3-1.3,0.3-1.8,0.9c-2.1,3.1-1.7,9.5,0.6,12.4
				c0.6,0.8,1,0.3,1.3-0.2c1.1-1.7,1.6-2.8,2.6,0.2c0.4,1.2,1.2,1.9,0.2,3.2c-0.1,0.1-0.1,0.2-0.1,0.3c-0.2,0.6,0.2,1.3,0.8,1.4
				c1,0.3,0.5-0.8,0.8-1.2c1.5-2.3,3-2.6,5.2-0.8c0.8,0.7,1.6,1.5,2.7,1.5c3.7-0.2,7.1,1.2,10.7,1.9c1.4,0.3,2.8,0.3,4.2-0.1
				c1.2-0.3,2.4-0.2,3.5,0.3c0.9,0.4,1.3,0.9,0.7,1.9c-1.7,2.6-3.8,4.7-7.2,5c-2.4,0.2-4.7,1.3-6.4,3.1c-1,1-0.4,1.1,0.1,1.4
				c0.9,0.5,1.9,0.9,2.9,1.4c0.5,0.2,1.4,0.5,1.5,0.8c0.6,2.8,2.7,2.4,4.7,2.4c1.6,0,4.4-0.1,4.5,0.9c0.4,2.3,2.3,4.7,0.5,7.2
				l0.1-0.1c-0.1,1.2,0.1,2.4-0.8,3.3c-0.9,0.9-1,1.6,0,2.6c0.7,0.8,0,1.6-0.9,1.8c-1.5,0.4-0.5-0.9-0.7-1.3
				c-0.9-1.8-1.2-2.5-3.5-2.5c-1.5,0-2-2-3.6-1.3c-1,0.4-2,1.9-3.3,0.3c-0.2-0.2-0.7,0.4-0.3,1c0.4,0.6,0.9,1.1,1.3,1.7
				c0.1,0.1,0.1,0.2,0.2,0.3c0.4,0.8,0,1.8-0.8,2.1c-0.8,0.5-1.2-0.3-1.7-0.8c-0.8-1-1.7-2-1.4-3.5c0.1-0.3,0-0.8-0.4-0.8
				c-0.4,0-0.3,0.5-0.3,0.8c-0.2,1.1-0.2,2.8-1.8,2.4c-1.1-0.3-0.9-2-1-3.1c0-0.8,0.4-1.6,1.1-2.1c0.8-0.5,1.3-1.5,1.1-2.4
				c-0.2-0.6,0.7-1.5-0.2-1.9c-0.6-0.2-0.9,0.7-1.1,1.1c-1,1.7-3.1,1.9-4.5,3.1c0,0,0,0,0-0.1c-1.4-0.2-1.6,1.1-2.3,1.8
				c-0.2,0.3-0.4,0.6-0.8,0.4c-0.4-0.2,0-0.6,0-0.9c0-1.8,0.1-3.6,0-5.4c-0.1-1.6-1.4-1.9-2.6-2.3c-0.8-0.2-1.4-0.1-1.7,0.3
				c0.2,0.4,0.3,0.7,0.5,1.1c0.2,0,0.5,0,0.6,0.3c0,0.1-0.2,0.4-0.3,0.5c1.8,4,3.6,8,4.1,12.5c0.4,0.7,0.7,1.3,1.2,1.9
				c0.7,1-0.1,1.4-0.7,2c-3.6,3.2-7.4,6.3-8.9,11.2c-0.1,0.3-0.3,0.6-0.6,0.9c-4,2-7,5.5-11.2,7.1c-1.7,0.7-3.2,1.5-3.4,3.7
				c-0.1,1.6-1.6,1.9-2.7,2.4c-10.4,5.4-21.6,9.2-32.3,14.1c-4.1,1.8-8.2,3.4-12.4,5.1c-2.5,1-4.7,2.8-6.2,5.1
				c-1.3,2.1-2.9,4-4.7,5.7c-7.2,7.5-12.2,16.4-16.2,25.9c-3.7,8.8-7.4,17.6-10.4,26.6c-0.2,0.5-0.5,1.1-0.8,1.6V406
				c0,3.2,0,3.2,3.2,3.2h318c0-37.5,0-75.1,0.1-112.5C322,294.7,321.9,292.9,321.4,291.1z M83.5,272c-0.5,0.4-0.5-0.1-0.4-0.4
				c0.3-0.6,0.4-1.3,1.1-1.7c0,0,0.2,0.3,0.4,0.5C84.3,271,83.9,271.5,83.5,272z M92.9,268.5c-0.3-0.1-0.5-0.4-0.6-0.5
				c-0.3-0.5-0.2-0.7,0.1-0.7c0.3,0.1,0.6,0.4,0.8,0.6C93.3,268.2,93.2,268.6,92.9,268.5z M95.7,271.8c-0.7-0.3-1.5-0.5-1.7-1.4
				c-0.1-0.3,0.1-0.7,0.4-0.8c0.9,0.1,1.3,0.8,1.5,1.6C96,271.4,96,271.9,95.7,271.8z M118.5,227c0.2,0,0.4,0.1,0.3,0.3
				c0,0.1-0.1,0.2-0.2,0.2c-0.2,0.1-0.4,0-0.4-0.2S118.4,227.1,118.5,227z M114,225.1c-0.1,0.5-0.4,0.9-0.9,1h0
				c-0.3,0.1-0.5-0.1-0.4-0.3c0-0.5,0.3-0.9,0.7-1.1C113.8,224.5,114.1,224.7,114,225.1z M112.3,220.6c0.4,0.1,0.8,0.3,1,0.7
				c0.2,0.4,0.2,1-0.2,1.2c-0.8,0.3-0.8-0.5-0.8-1C112.2,221.1,112.3,220.8,112.3,220.6z M107.3,310c-1.1-2.1-1.5-4.5-1.1-6.8
				c0.1-0.8,0.6-1.4,1.3-1.7c1.2-0.5,2.6,0,3.1,1.2c0.8,1.6,1.2,3.3,1.2,5l0,0c-0.1,0.6-0.2,1.2-0.4,1.8c-0.3,1.1-1.1,1.4-2.1,1.5
				C108.5,311.1,107.7,310.7,107.3,310z M114.3,380.1c-2.9,0.1-5.4-2.1-5.5-5c0.3-2.9,2.6-5.2,5.5-5.4c2.5,0.1,5,2.7,5,5.4h0
				C119.2,377.8,117,380,114.3,380.1z M177,142.3c0.2-0.8-0.1-1.6,0.5-2.3l0.2,1.5c0,0.8,0.2,1.6-0.4,1.8
				C176.6,143.5,177,142.7,177,142.3z M175.4,147.9c0.2-0.4,0.1-1.4,0.9-1c0.5,0.2,0,1.1-0.2,1.6c-2.7,7.4-9.7,12.2-17.6,12.1
				l-2.5-0.4c0.9-0.5,1.9-0.3,2.9-0.5C166.1,158.1,172.3,155.2,175.4,147.9z M168.6,275.7c-0.1,0.2-0.2,0.4-0.5,0.5
				c-0.3,0.2-0.8,0.1-0.8-0.3s0.3-0.6,0.8-0.7v0c0.1,0,0.1,0,0.2,0C168.5,275.3,168.7,275.5,168.6,275.7z M158.8,134
				c0.3,1.6-1.2,0.5-1.5,1l0,0c-2.5-0.1-3.3-1.4-2.3-3.4c0.6-1.3,2-2.1,3.4-2c0.3,0,1.2-0.1,0.6,0.6
				C157.9,131.5,158.5,132.7,158.8,134z M163.1,154.8c0,0,0.1,0,0.1,0c0.8-0.1,1.5,0.5,1.6,1.3c0,1.1-0.8,1.6-1.8,1.6
				c-0.6,0-1.4,0-1.3-0.8C161.6,156,162.2,155.1,163.1,154.8z M159.1,121.9L159.1,121.9c0.2,0.1,0.6-0.1,0.8,0.3
				c-0.2,0.1-0.4,0.1-0.6,0.1c-0.2,0-0.4-0.1-0.6-0.1L159.1,121.9z M156.8,126.2L156.8,126.2c0.6,0.3,1.7-0.2,1.8,0.4
				c0.1,0.6-1,0.8-1.6,1c-0.8,0.3-1.5,1.2-2.5,0.6c-0.2-0.2-0.2-0.4-0.2-0.6C154.7,126.6,155.7,126,156.8,126.2z M150.2,89.2
				l0.4,0.4l-0.2,0.3c-0.1-0.1-0.3-0.3-0.4-0.4C150.1,89.5,150.2,89.3,150.2,89.2z M96.1,131.2c-0.5,0.2-1.2,1-1.7,0.1
				c-0.2-0.5,0.5-1,1-1.2c1.8-0.8,3.7-1.4,5.6-1.7c0.5-0.1,0.9,0.1,1.1,0.6c-0.2,0.5-0.7,0.6-1.1,0.6
				C99.3,129.9,97.6,130.4,96.1,131.2z M105,139.6c-0.6,0.1-1.2,0.2-1.6,0.2l0,0c-2-0.4-4.2,0.2-5.5-2.3c-0.7-1.1-0.7-2.5-0.1-3.6
				c0.3-0.8,1.1-1.3,1.9-1.3c1.2,0,0.8,1.1,1,1.8c0.7,3,1.7,4.1,4.2,4.4c0.4,0.1,1.1-0.3,1.2,0.2S105.5,139.5,105,139.6z M119.6,136
				c-0.1-0.3-0.2-0.6-0.2-0.9c0-0.5,0.2-0.9,0.8-0.8c0.1,0,0.2,0.4,0.2,0.6C120.2,135.3,120.2,135.8,119.6,136z M110.4,181
				c0,0,0.1-0.1,0.1-0.1c0.2-0.1,0.4,0,0.5,0.2c0,0.1-0.1,0.2-0.1,0.3l-0.6-0.1C110.3,181.2,110.3,181.1,110.4,181z M132.9,187.2
				c-1.8,0.9-3.3,2.2-5.5,2.3c-1.4,0-2.8,0-3.2,2c-0.2,1-1.3,0.7-2.6,0.7c-2.9-2.7-7.2-0.3-10.8-2c-2.1-1-3-2-2.6-3.4
				s2.5-1.6,4.4-1.2c2.6,0.5,5.3,0.6,7.9,0.3c1.1-0.3,2.2-0.3,3.3,0c2.3,0.8,4.6,0.9,6.7-0.7c0.5-0.5,1.3-0.7,1.9-0.3
				c0.5,0.3,1.2,0.5,1.2,1.2C133.8,186.7,133.3,187,132.9,187.2z M127.8,163.8c0.2-0.1,0.4-0.2,0.6-0.1c0,0,0.1,0,0.1,0
				c0.3,0.2,0.4,0.5,0.2,0.8c-0.2,0-0.4,0.2-0.6,0.1c-0.1,0-0.1,0-0.1-0.1C127.8,164.4,127.7,164.1,127.8,163.8z M134.9,117.9
				c-1-0.2-1.9,0.3-2.4,1.2c-1,1.6-1.2,3.7-3.6,4.3c-0.8,0.2-0.2,1.5,0,2.3c0.4,1.8-0.3,2.7-2.1,2.9c-0.7,0.1-1.4,0.2-2.1,0.3
				c-5.6,0.6-5.7,0.5-4.2-5c0.1-0.5,0.3-0.9-0.2-1.2c-0.3-0.1-0.7-0.1-1,0c-0.8,0.3-1.3,1-2.2,1c-0.4,0-0.9,0.1-1-0.1
				c-0.4-0.7,0.3-0.7,0.6-1c0.4-0.3,0.8-0.6,0.4-1.1c-0.3-0.3-0.6-0.4-1-0.2c-1.5,0.8-2.2-0.4-3.4-1c-4.1-2-8.5-3.3-13.1-3.8
				c-1.5-0.2-3-0.1-4.5-0.2c-1.7-0.3-3.5,0.1-5,0.9c-1.8,1.2-3.1,0.5-3.5-1.7c-0.9-4.3-1.6-8.6-1.9-13c0.2-3.8,0.9-7.6,1.9-11.3
				c1.8-5.7,3.1-11.6,5.4-17.2c1.6-4.1,4.1-7.8,7.3-10.8c2.6-2.2,5.7-3.8,9-4.5c4.5-1.2,8.4-3.6,12.7-4.8c1.9-0.7,3.9-0.9,5.9-0.6
				c1.3,0.3,2.6,0.2,3.8-0.3c2.3-1,3.7,0.7,5.5,1.4c2,0.7,2.9,1.9,3.7,4.1c0.8,2.4-0.1,5,1.8,7.2c1.6,1.9,2.5,2.6,4.8,1.4
				c0.4-0.2,0.7-0.8,1.1-0.3c0.2,0.3,0.3,0.7,0.2,1c-0.4,1-0.6,2-0.8,3c-0.4,1.4-1.2,2.6,0.9,3.6c1.5,0.8,0.4,2.3-0.2,3.3
				c-1.7,2.6-1.7,3.5,0.3,6c1.1,1.4,0.5,2.5-0.3,3.4c0,0-0.1,0.1-0.1,0.1c0.7,1.3,1.2,2.7,1.4,4.3c0.1,0.1,0.2,0.2,0.3,0.3
				c0.9,1.5,2.5,2.6,2.4,4.6c0,0.3-0.1,0.7-0.2,1c-1.9,3.2-0.6,6.6-0.6,10c0,1.9-1.2,3.6-2.9,4.4c-2.5,1.3-5.5,1.8-7.4,3.9
				C139.2,117.4,137,118.3,134.9,117.9z M135.8,223.6c0.1,0.1,0.3,0.3,0.3,0.4c0,0.3-0.1,0.8-0.5,0.8c-0.1,0-0.4-0.3-0.4-0.4
				C135.2,224,135.5,223.7,135.8,223.6z M148.8,380.3c-0.1,0.5-0.4,0.9-0.8,1.1c-0.2-0.1-0.4-0.3-0.4-0.5c-0.1-0.5,0.2-0.9,0.7-1.1
				C148.8,379.6,148.9,380,148.8,380.3z M203.1,295c-1.4,4.4-4.9,7.4-7.2,11.2c-4.8,8-11.8,14.2-17.7,21.4
				c-4.1,5-7.7,10.4-12.1,15.1c-5.5,5.8-10.5,12-16.1,17.8c-3.2,3.2-5.5,7-8,10.7c-0.2,0.4-0.5,1.1-0.9,0.8s0.1-0.8,0.1-1.2
				c-0.5-4.6,0.2-9.3-0.4-13.9c-0.2-0.7-0.2-1.4-0.2-2.1c0.8-2.9,0.4-5-3-5.9c-1.6-0.4-1.9-2.3-1.5-3.5s1.6-1.9,3.4-1.5
				c3.6,0.8,7.2,1,10.9,0.8c0.7-0.1,1.6-0.2,1.8-0.8c0.2-0.6-0.5-1.1-0.9-1.4c-0.4-0.3-1-0.8-0.7-1c2.6-1.5,1.1-2.8-0.1-4.1
				c1.4-2.7-0.8-5-0.8-7.4c-0.1-3.3-1.3-6.5-3.4-9c-1.1-1.4-1.7-2.6-0.3-4c1.3-1.4,1-2.7,0-4.1c-2.9-4-4.8-8.7-5.6-13.6
				c-1.1-6-2.7-11.9-4.9-17.7c-1.2-2.9-2.9-5.6-5-7.9c-2.4-2.9-4-6.4-4.7-10.1c-1.1-5.7-1.9-11.5-2.8-17.3c-0.2-1.5-0.2-3-0.4-4.6
				c-0.2-1.8,0.9-2,2.2-1.5c5.1,2.1,10.5,3.3,15.3,6.2c1.4,0.8,3.1,1.1,4.5,1.8c2.8,1.3,4.9,2.8,5.5,6.5c0.5,3.1,0.6,6.2,0.2,9.3
				c-0.2,2.5,0.2,4.6,3,6.4c2.3,1.7,5.3,2.4,8.1,1.9c1-0.2,2.2-0.3,2.2,1.4c2.2,0.1,2,3.7,4.7,3.4c1.2-0.1,1.8,0.8,1.3,2.2
				c-0.2,0.6-0.2,1.3-0.2,1.9c1.9-0.9,3.8-1.8,5.6-2.8c1.6-1,4-1.5,3.3-4.5c0-0.1,0-0.1,0-0.2c0-0.7,0.6-1.2,1.3-1.2
				c0.9,0.1,0.4,0.9,0.4,1.4c0.1,1.3-0.1,2.9,2.1,2.7c0.5,0,0.8,0.8,0.7,1.5s-0.4,1.5,0.3,1.9c2.3,1.4,0.7,3.5,0,4.1
				c-2.9,2.3-2.3,5.8-2.4,8.4c-0.1,2.3-0.4,5,0.4,7.4c1.1,3.3,1.1,3.3,4.1,1.5c3.4-2,5.7-5.2,8.9-7.4c1.9-1.2,3.7-2.4,6.1-2.6
				C203.1,291.6,203.9,292.6,203.1,295z"/>
			<path class="st2" d="M135,219.7c-1.4,1.8-3.4,1.4-5.3,1.5c-0.8,0-1.4-0.3-1.2-1.2c0.2-0.8,0.6-1.2,1.5-0.8
				c0.5,0.2,1.6,0.9,1.4-0.3c-0.4-3.3,1-1.6,2.1-0.9c0.7,0.4,1.2,1.1,1.4,1.9L135,219.7z"/>
			<path class="st2" d="M109.9,164.9c0.1,1.3-1.3,3.6-2.3,3.6c-1.2,0-2.3-0.7-2.7-1.8c-0.4-1.4,1.2-0.9,1.9-1.2s1.4-0.8,2.2-1.1
				C109.5,164.1,109.8,164.2,109.9,164.9z"/>
			<path class="st2" d="M108.4,210.4c1.2,0.3,1.1,1.3,1.2,2.2s-0.3,1.4-1.2,1.3c-0.8-0.1-1.5-0.8-1.4-1.7c0,0,0,0,0,0
				C107.1,211.4,107.6,210.6,108.4,210.4z"/>
			<path class="st2" d="M115.2,215.6c0.3,0,0.5,0.1,0.3,0.4c-0.7,0.9-1.5,1.7-2.3,2.6c-0.1,0.1-0.2,0.1-0.3,0
				c-0.3-0.1-0.3-0.3-0.2-0.6C113.4,216.9,114.2,216.1,115.2,215.6z"/>
			<path class="st2" d="M101.3,164.5c-0.2,0.2-0.5,0.4-0.8,0.6c-0.7,0.3-1.6,0.3-2.3,0.1c0.7-0.1,1.5-0.1,2.2-0.3
				C100.7,164.8,101,164.7,101.3,164.5L101.3,164.5z"/>
			<path class="st2" d="M106.6,202.1c-0.1,0.3-0.4,0.5-0.7,0.4c0,0,0,0-0.1,0c-0.3-0.1-0.5-0.4-0.4-0.6c0,0,0-0.1,0.1-0.1
				c0.1-0.2,0.3-0.3,0.5-0.2C106.3,201.4,106.5,201.7,106.6,202.1C106.6,202,106.6,202,106.6,202.1z"/>
			<path class="st2" d="M107.3,162.6c-0.5,1-1.6,1.6-2.7,1.6l0.1,0.1C105.4,163.4,106.3,162.8,107.3,162.6L107.3,162.6z"/>
			<path class="st2" d="M127.9,213.1l0.4,0.4c-0.2,0.1-0.4,0.2-0.6,0.1s-0.3-0.3-0.4-0.4L127.9,213.1z"/>
			<path class="st2" d="M105.4,172.1c0,0.3-0.1,0.5-0.4,0.4c-0.2-0.1-0.4-0.3-0.5-0.5c-0.1-0.3,0.1-0.5,0.4-0.4
				S105.3,172,105.4,172.1z"/>
			<path class="st2" d="M112.8,171.1c0.2,0.1,0.5,0.1,0.6,0.3c0.2,0.4,0,0.6-0.4,0.5c-0.2,0-0.3-0.2-0.5-0.4
				C112.6,171.4,112.7,171.3,112.8,171.1z"/>
			<path class="st2" d="M106.8,170.4c0,0.1-0.1,0.2-0.1,0.2s-0.2-0.1-0.2-0.1l0.1-0.3L106.8,170.4z"/>
			<path class="st2" d="M104.6,164.2c-1,0.6-2.2,0.7-3.3,0.3l0,0L104.6,164.2L104.6,164.2z"/>
			<path class="st2" d="M98.9,145.6l0.1,0.2c-0.1,0-0.2,0.1-0.2,0.1s-0.1-0.2-0.1-0.2L98.9,145.6z"/>
			<path class="st2" d="M120.3,163.4c-0.1,0.1-0.1,0.2-0.2,0.2c-0.2,0.1-0.3,0-0.4-0.2c0-0.1,0-0.1,0-0.2c0-0.1,0.1-0.2,0.2-0.2
				C120.1,163,120.3,163.1,120.3,163.4z"/>
			<path class="st2" d="M169.5,281.5c-0.7,0.3-1.3,1.5-2,0.7c-0.6-0.7-0.9-1.7-0.8-2.6c0.1-0.9,0.6,0,0.8,0.2
				c0.5,0.8,1.2,1.4,2.1,1.8L169.5,281.5z"/>
			<path class="st2" d="M182.4,282.3c0,0.1,0.1,0.2,0,0.3s-0.4,0.1-0.5-0.1c0-0.1-0.1-0.2,0-0.3S182.3,282.1,182.4,282.3z"/>
			<path class="st2" d="M150.1,96.2c-0.1,0.2-0.3,0.4-0.5,0.2s-0.1-0.4,0-0.5s0.2-0.1,0.3-0.1C150.1,95.7,150.1,95.9,150.1,96.2z"/>
			<path class="st2" d="M137.7,59.8c-0.3,0-0.4-0.2-0.3-0.4c0.1-0.1,0.1-0.1,0.2-0.2c0.2,0,0.4,0.2,0.3,0.4
				C137.9,59.7,137.8,59.7,137.7,59.8z"/>
		</g>
	</g>
</g>
</svg>
